<svg id="Layer_1" data-name="Layer 1" xmlns="http://www.w3.org/2000/svg" viewBox="0 0 551.66 134.75"><defs><style>.cls-1,.cls-5{fill:#fb2c53;}.cls-2,.cls-4{fill:#26f4ee;}.cls-3,.cls-6{fill:#fff;}.cls-4,.cls-5,.cls-6{fill-rule:evenodd;}</style></defs><path class="cls-1" d="M1044.24,529.15h-9.8v-11.3h32.5v11.3h-9.8v36.22h-12.9Z" transform="translate(-904.72 -472.85)"/><path class="cls-1" d="M1077.48,510.53a6.94,6.94,0,0,1,7,6.89,7.08,7.08,0,0,1-7.14,7.07,6.83,6.83,0,0,1-6.82-7A7,7,0,0,1,1077.48,510.53Zm-5.83,54.78V527.22h11.54v38.09Z" transform="translate(-904.72 -472.85)"/><path class="cls-1" d="M1102.79,565.31h-11.53V517.79h11.53v23.14l10.86-13.71h14l-15,17.56,16.13,20.53h-14.58s-10.55-14.27-11.36-15.38Z" transform="translate(-904.72 -472.85)"/><path class="cls-1" d="M1157.07,529.15h-9.8v-11.3h32.51v11.3H1170v36.22h-12.9Z" transform="translate(-904.72 -472.85)"/><path class="cls-1" d="M1203.47,526.48c11.54,0,20.54,8.31,20.54,19.79s-8.38,20.35-20.79,20.35a20.54,20.54,0,0,1-20.59-20.17C1182.63,535,1191.75,526.48,1203.47,526.48Zm-9.3,20.16a8.94,8.94,0,0,0,9.18,9.06c5.7,0,9.18-3.66,9.18-9.62,0-4.9-3.72-8.75-9.12-8.75A9,9,0,0,0,1194.17,546.64Z" transform="translate(-904.72 -472.85)"/><path class="cls-1" d="M1263.7,516.06c6.14,0,11.79,2.85,15.2,5.08l-4.84,9.31s-5-3.79-9.55-3.79c-3,0-4.78,1.68-4.78,4.16s2.92,3.41,5.4,4.34c1.49.56,3.91,1.55,5.15,2.05,7.13,2.85,10.79,7.2,10.79,14.33,0,10.17-9.43,15.51-19,15.51-6.7,0-11.42-2.79-16.38-5.89,0,0,3.91-7.82,5-9.62,2.3,2.05,6.64,4.59,11.17,4.59,3.48,0,6.89-1.18,6.89-3.72,0-2-.31-2.92-5-4.65-1.49-.56-5-1.93-7.08-2.86-6-2.73-9.3-7-9.3-13.71C1247.39,521.7,1255.27,516.06,1263.7,516.06Z" transform="translate(-904.72 -472.85)"/><path class="cls-1" d="M1287.09,565.31V517.79h11.54v14.39a13.72,13.72,0,0,1,11.1-5.7c7.57,0,13.71,5.46,13.71,12.65v26.18h-11.91V543c0-3.16-.87-6.14-6-6.14a6.82,6.82,0,0,0-6.82,6.7v21.77Z" transform="translate(-904.72 -472.85)"/><path class="cls-1" d="M1350.48,526.48c11.54,0,20.54,8.31,20.54,19.79s-8.38,20.35-20.78,20.35a20.54,20.54,0,0,1-20.6-20.17C1329.64,535,1338.76,526.48,1350.48,526.48Zm-9.3,20.16a8.94,8.94,0,0,0,9.18,9.06c5.71,0,9.18-3.66,9.18-9.62,0-4.9-3.72-8.75-9.12-8.75A9,9,0,0,0,1341.18,546.64Z" transform="translate(-904.72 -472.85)"/><path class="cls-1" d="M1388.88,547.76v17.55h-11.66V527.22h11.23v6c.93-2.85,4.46-6.76,9-6.76h2.61v11.91a9.34,9.34,0,0,0-4-.75C1391.61,537.64,1388.88,540.37,1388.88,547.76Z" transform="translate(-904.72 -472.85)"/><path class="cls-1" d="M1408.05,565.31v-27.6h-3.79V527.22h3.79v-9.43h11.6v9.43h6.14v10.55h-6.14v27.54Z" transform="translate(-904.72 -472.85)"/><path class="cls-1" d="M1442.85,526.48a13.37,13.37,0,0,1,12.47,8.37l-8.75,3.85a5.38,5.38,0,0,0-4.71-3c-1.87,0-3,.81-3,2.3,0,4.28,17.55,2.54,17.55,15.57,0,8.25-7.19,12.65-15.26,12.65-6.39,0-11.1-2.35-14.08-7.94l8.87-4.46s1.92,3.34,5.34,3.34c1.86,0,4.09-.86,4.09-2.66,0-4.72-17.06-2.24-17.06-15.63C1428.27,531.5,1434.41,526.48,1442.85,526.48Z" transform="translate(-904.72 -472.85)"/><path class="cls-2" d="M1041.21,529.15h-9.8v-11.3h32.5v11.3h-9.8v36.22h-12.9Z" transform="translate(-904.72 -472.85)"/><path class="cls-2" d="M1074.46,510.53a6.94,6.94,0,0,1,7,6.89,7.08,7.08,0,0,1-7.14,7.07,6.83,6.83,0,0,1-6.82-7A7,7,0,0,1,1074.46,510.53Zm-5.83,54.78V527.22h11.53v38.09Z" transform="translate(-904.72 -472.85)"/><path class="cls-2" d="M1099.77,565.31h-11.54V517.79h11.54v23.14l10.85-13.71h14l-15,17.56,16.13,20.53h-14.58s-10.55-14.27-11.35-15.38Z" transform="translate(-904.72 -472.85)"/><path class="cls-2" d="M1154,529.15h-9.8v-11.3h32.51v11.3H1167v36.22H1154Z" transform="translate(-904.72 -472.85)"/><path class="cls-2" d="M1200.44,526.48c11.54,0,20.54,8.31,20.54,19.79s-8.38,20.35-20.78,20.35a20.54,20.54,0,0,1-20.6-20.17C1179.6,535,1188.72,526.48,1200.44,526.48Zm-9.3,20.16a8.94,8.94,0,0,0,9.18,9.06c5.71,0,9.18-3.66,9.18-9.62,0-4.9-3.72-8.75-9.12-8.75A9,9,0,0,0,1191.14,546.64Z" transform="translate(-904.72 -472.85)"/><path class="cls-2" d="M1260.67,516.06c6.15,0,11.79,2.85,15.2,5.08l-4.84,9.31s-5-3.79-9.55-3.79c-3,0-4.78,1.68-4.78,4.16s2.92,3.41,5.4,4.34c1.49.56,3.91,1.55,5.15,2.05,7.13,2.85,10.8,7.2,10.8,14.33,0,10.17-9.44,15.51-19,15.51-6.7,0-11.41-2.79-16.38-5.89,0,0,3.91-7.82,5-9.62,2.29,2.05,6.64,4.59,11.16,4.59,3.48,0,6.89-1.18,6.89-3.72,0-2-.31-2.92-5-4.65-1.49-.56-5-1.93-7.08-2.86-6-2.73-9.3-7-9.3-13.71C1244.36,521.7,1252.24,516.06,1260.67,516.06Z" transform="translate(-904.72 -472.85)"/><path class="cls-2" d="M1284.06,565.31V517.79h11.54v14.39a13.72,13.72,0,0,1,11.1-5.7c7.57,0,13.71,5.46,13.71,12.65v26.18H1308.5V543c0-3.16-.87-6.14-6-6.14a6.82,6.82,0,0,0-6.83,6.7v21.77Z" transform="translate(-904.72 -472.85)"/><path class="cls-2" d="M1347.46,526.48c11.54,0,20.53,8.31,20.53,19.79s-8.38,20.35-20.78,20.35a20.55,20.55,0,0,1-20.6-20.17C1326.61,535,1335.73,526.48,1347.46,526.48Zm-9.31,20.16a8.94,8.94,0,0,0,9.18,9.06c5.71,0,9.18-3.66,9.18-9.62,0-4.9-3.72-8.75-9.12-8.75A9,9,0,0,0,1338.15,546.64Z" transform="translate(-904.72 -472.85)"/><path class="cls-2" d="M1385.85,547.76v17.55h-11.66V527.22h11.23v6c.93-2.85,4.47-6.76,9.06-6.76h2.6v11.91a9.28,9.28,0,0,0-4-.75C1388.58,537.64,1385.85,540.37,1385.85,547.76Z" transform="translate(-904.72 -472.85)"/><path class="cls-2" d="M1405,565.31v-27.6h-3.78V527.22H1405v-9.43h11.6v9.43h6.14v10.55h-6.14v27.54Z" transform="translate(-904.72 -472.85)"/><path class="cls-2" d="M1439.82,526.48a13.37,13.37,0,0,1,12.47,8.37l-8.75,3.85a5.38,5.38,0,0,0-4.71-3c-1.86,0-3,.81-3,2.3,0,4.28,17.55,2.54,17.55,15.57,0,8.25-7.19,12.65-15.26,12.65-6.39,0-11.1-2.35-14.08-7.94l8.87-4.46s1.93,3.34,5.34,3.34c1.86,0,4.09-.86,4.09-2.66,0-4.72-17.06-2.24-17.06-15.63C1425.24,531.5,1431.38,526.48,1439.82,526.48Z" transform="translate(-904.72 -472.85)"/><path class="cls-3" d="M1042.56,529h-9.8V517.72h32.51V529h-9.8v36.23h-12.91Z" transform="translate(-904.72 -472.85)"/><path class="cls-3" d="M1075.81,510.4a6.94,6.94,0,0,1,7,6.89,7.08,7.08,0,0,1-7.13,7.07,6.83,6.83,0,0,1-6.83-7A7,7,0,0,1,1075.81,510.4ZM1070,565.18V527.09h11.54v38.09Z" transform="translate(-904.72 -472.85)"/><path class="cls-3" d="M1101.12,565.18h-11.54V517.66h11.54V540.8L1112,527.09h14l-15,17.55,16.13,20.54h-14.58s-10.54-14.27-11.35-15.39Z" transform="translate(-904.72 -472.85)"/><path class="cls-3" d="M1155.4,529h-9.8V517.72h32.5V529h-9.8v36.23h-12.9Z" transform="translate(-904.72 -472.85)"/><path class="cls-3" d="M1201.8,526.34c11.54,0,20.53,8.32,20.53,19.79s-8.37,20.35-20.78,20.35a20.54,20.54,0,0,1-20.6-20.16C1181,534.9,1190.07,526.34,1201.8,526.34Zm-9.31,20.17a8.94,8.94,0,0,0,9.18,9c5.71,0,9.19-3.66,9.19-9.61,0-4.9-3.73-8.75-9.12-8.75A8.94,8.94,0,0,0,1192.49,546.51Z" transform="translate(-904.72 -472.85)"/><path class="cls-3" d="M1262,515.92c6.14,0,11.79,2.86,15.2,5.09l-4.84,9.3s-5-3.78-9.55-3.78c-3,0-4.78,1.67-4.78,4.16s2.91,3.41,5.39,4.34c1.49.56,3.91,1.55,5.15,2.05,7.14,2.85,10.8,7.19,10.8,14.33,0,10.17-9.43,15.51-19,15.51-6.7,0-11.42-2.8-16.38-5.9,0,0,3.91-7.81,5-9.61,2.3,2,6.64,4.59,11.17,4.59,3.47,0,6.88-1.18,6.88-3.73,0-2-.31-2.91-5-4.65-1.49-.56-5-1.92-7.07-2.85-6-2.73-9.31-7-9.31-13.71C1245.71,521.57,1253.59,515.92,1262,515.92Z" transform="translate(-904.72 -472.85)"/><path class="cls-3" d="M1285.41,565.18V517.66H1297v14.39a13.72,13.72,0,0,1,11.11-5.71c7.56,0,13.71,5.46,13.71,12.66v26.18h-11.91V542.85c0-3.17-.87-6.15-6-6.15a6.83,6.83,0,0,0-6.83,6.7v21.78Z" transform="translate(-904.72 -472.85)"/><path class="cls-3" d="M1348.81,526.34c11.54,0,20.53,8.32,20.53,19.79s-8.37,20.35-20.78,20.35A20.53,20.53,0,0,1,1328,546.32C1328,534.9,1337.08,526.34,1348.81,526.34Zm-9.31,20.17a8.94,8.94,0,0,0,9.19,9c5.7,0,9.18-3.66,9.18-9.61,0-4.9-3.72-8.75-9.12-8.75A8.94,8.94,0,0,0,1339.5,546.51Z" transform="translate(-904.72 -472.85)"/><path class="cls-3" d="M1387.21,547.62v17.56h-11.67V527.09h11.23v6c.93-2.86,4.47-6.77,9.06-6.77h2.61v11.91a9.47,9.47,0,0,0-4-.74C1389.94,537.51,1387.21,540.24,1387.21,547.62Z" transform="translate(-904.72 -472.85)"/><path class="cls-3" d="M1406.37,565.18V537.57h-3.78V527.09h3.78v-9.43H1418v9.43h6.15v10.54H1418v27.55Z" transform="translate(-904.72 -472.85)"/><path class="cls-3" d="M1441.61,526.34a13.36,13.36,0,0,1,12.47,8.38l-8.75,3.85a5.38,5.38,0,0,0-4.71-3c-1.87,0-3,.8-3,2.29,0,4.28,17.55,2.55,17.55,15.57,0,8.25-7.19,12.66-15.26,12.66-6.39,0-11.1-2.36-14.08-7.94l8.87-4.47s1.92,3.35,5.34,3.35c1.86,0,4.09-.87,4.09-2.67,0-4.71-17.06-2.23-17.06-15.63C1427,531.37,1433.17,526.34,1441.61,526.34Z" transform="translate(-904.72 -472.85)"/><path class="cls-4" d="M1001.59,536c-.2-.46-.43-.92-.67-1.38a21.73,21.73,0,0,0-1.45-2.37c-.5-.35-1-.68-1.54-1a24,24,0,0,0-11.15-3.21l5.19-2.73a24,24,0,0,0-11.19-3.23l9.53-5a23.35,23.35,0,0,0,10.61-30.33c-.21-.46-.43-.92-.67-1.37A23.57,23.57,0,0,0,998.8,483a23.89,23.89,0,0,0-30.59-7.45l-50.82,26.7a23.36,23.36,0,0,0-2.48,40,24,24,0,0,0,12.68,4.17l-5.19,2.73-4.34,2.28a23.35,23.35,0,0,0-2.47,40,24.33,24.33,0,0,0,3.86,2.15,23.9,23.9,0,0,0,20.71-.67L991,566.32A23.34,23.34,0,0,0,1001.59,536Zm-60.81,17.27V515.38l30.76,19-1.83,1.13,7.83,4.83-1.79,1.1-23,14.11-6,3.69v-9.65Z" transform="translate(-904.72 -472.85)"/><path class="cls-5" d="M1012.92,546.49a23.33,23.33,0,0,0-7.53-8.39,23.07,23.07,0,0,0-3.8-2.1,23.82,23.82,0,0,0-8.81-2l5.15-2.7,4.38-2.31a23.36,23.36,0,0,0,2.42-40.09,24,24,0,0,0-24.52-1.44l-50.82,26.7a23.35,23.35,0,0,0-10.61,30.33c.21.46.43.92.67,1.37a24,24,0,0,0,1.53,2.49c.46.31.93.61,1.42.89l.64.36.66.34c.21.11.43.22.66.32l.67.3.68.28a22.08,22.08,0,0,0,2.89.92l.82.19.82.16.73.12c.38.06.76.1,1.15.14s.49,0,.73.06l.74,0-5.15,2.7a24,24,0,0,0,11.15,3.21l-9.53,5a23.35,23.35,0,0,0-10.61,30.33c.21.46.43.92.67,1.37a22.81,22.81,0,0,0,1.52,2.48,23.88,23.88,0,0,0,30.52,7.35l50.82-26.7A23.34,23.34,0,0,0,1012.92,546.49Zm-29.38-.25-30.76,18.9v-9.6l-6,3.69V521.34l22.93,14.16,7.83,4.83-1.79,1.1Z" transform="translate(-904.72 -472.85)"/><path class="cls-6" d="M1006.92,540.58a21.41,21.41,0,0,0-1.53-2.48,23.17,23.17,0,0,0-5.92-5.85c-.5-.35-1-.68-1.54-1a24,24,0,0,0-11.15-3.21l5.19-2.73,4.34-2.28a23.35,23.35,0,0,0,9.94-31.7,22.81,22.81,0,0,0-1.52-2.48A23.25,23.25,0,0,0,998.8,483a23.94,23.94,0,0,0-24.59-1.49l-50.82,26.7a23.35,23.35,0,0,0-9.94,31.7,22.08,22.08,0,0,0,1.46,2.39,23.42,23.42,0,0,0,6.07,6c.46.31.93.61,1.42.89l.64.36.66.34c.21.11.43.22.66.32l.67.3.68.28a22.08,22.08,0,0,0,2.89.92l.82.19.82.16.73.12c.38.06.76.1,1.15.14s.49,0,.73.06l.74,0-5.15,2.7-4.38,2.31a23.35,23.35,0,0,0-9.94,31.7,21.56,21.56,0,0,0,1.47,2.39,23.16,23.16,0,0,0,6,6A23.92,23.92,0,0,0,946.16,599L997,572.28A23.34,23.34,0,0,0,1006.92,540.58Zm-31.17.85-23,14.11-4.34,2.67a1.09,1.09,0,0,1-1.66-.93V522.92a.89.89,0,0,1,1.35-.75l21.58,13.33,6.3,3.89a1.1,1.1,0,0,1,0,1.88Z" transform="translate(-904.72 -472.85)"/></svg>